# xmcd
#
# Track frame offsets:
#	150
#	9375
#	27511
#	42544
#	55201
#	101483
#	114252
#	127303
#	163838
#	191866
#	200709
#	214696
#	225753
#	241075
#
# Disc length: 3380 seconds
#
# Revision: 1
# Processed by: cddbd v1.4PL0 Copyright (c) Steve Scherf et al.
# Submitted via: audiograbber 1.81.01
#
DISCID=c10d320e
DTITLE=String Bean and the Stalkers - Hey Hey
DYEAR=1998
DGENRE=Blues
TTITLE0=Cold Hard Rain
TTITLE1=Tore Up
TTITLE2=Worried Life Blues
TTITLE3=Bring It On Home
TTITLE4=Who's Been Talking
TTITLE5=Showplace Shuffle
TTITLE6=Last Night
TTITLE7=Doin' the Shout
TTITLE8=Deep Ellem Blues
TTITLE9=Birmingham Blues
TTITLE10=Stalkin'
TTITLE11=Great Change
TTITLE12=Forty Four Blues
TTITLE13=You're So Fine
EXTD=
EXTT0=
EXTT1=
EXTT2=
EXTT3=
EXTT4=
EXTT5=
EXTT6=
EXTT7=
EXTT8=
EXTT9=
EXTT10=
EXTT11=
EXTT12=
EXTT13=
PLAYORDER=
